<svg id="svg3607" xmlns="http://www.w3.org/2000/svg" viewBox="0 0 1005.98 287.74"><defs><style>.cls-1{fill:#222;}</style></defs><title>Ontario_Power_Generation_logo</title><path id="path2538" d="M28.11,139.16c0,14.31,5.69,21.92,14,21.92,8.52,0,14.22-7.61,14.22-21.92V51.71c0-16.39-4.88-24-14.22-24-9.14,0-14,7.61-14,24v87.45ZM7.8,53.55c0-23.31,6.7-43.84,34.32-43.84,26.2,0,34.52,15.46,34.52,41.3v84.23c0,23.31-6.69,43.84-34.52,43.84-26,0-34.32-15.46-34.32-41.3V53.55Z" transform="translate(-7.8 -7.42)"/><path id="path2542" d="M91.06,11.09h27.82l24,138.45h0.61V11.09h19.08v166.6h-29l-24-142.14h-0.61V177.69H91.06V11.09Z" transform="translate(-7.8 -7.42)"/><path id="path2546" d="M171.23,11.09h69V30.48H215.9V177.69H195.59V30.48H171.23V11.09Z" transform="translate(-7.8 -7.42)"/><path id="path2550" d="M257.53,115.85h25.79l-12.59-80.3h-0.41ZM259.76,11.1h23.56l29.86,166.6H292.86l-6.69-42.45H254.48l-6.7,42.45H227.47Z" transform="translate(-7.8 -7.42)"/><path id="path2554" d="M343.19,85.86h5.28c16,0,18.27-3.46,18.27-28.39,0-24.68-1.22-27-13.81-27h-9.75V85.86ZM322.88,11.09h31.47c29.65,0,32.7,9,32.7,45.46,0,22.39-2.64,32.07-19.29,37.84v0.46c13.81,1.62,18.48,9.69,18.48,25.39l0,57.46H366l0-52.61c0-15.69-2.44-19.84-15.84-19.84h-6.91V177.7H322.88V11.09Z" transform="translate(-7.8 -7.42)"/><path id="path2556" d="M401.25,11.1h20.31V177.7H401.25V11.1Z" transform="translate(-7.8 -7.42)"/><path id="path2560" d="M455.67,139.16c0,14.31,5.69,21.92,14,21.92,8.52,0,14.21-7.61,14.21-21.92V51.71c0-16.39-4.87-24-14.21-24-9.14,0-14,7.61-14,24v87.45ZM435.36,53.55c0-23.31,6.7-43.84,34.32-43.84,26.19,0,34.52,15.46,34.52,41.3v84.23c0,23.31-6.7,43.84-34.52,43.84-26,0-34.32-15.46-34.32-41.3V53.55Z" transform="translate(-7.8 -7.42)"/><path id="path2564" class="cls-1" d="M794.85,52.7q-2.49-35.54-3.18-41.77h-39Q750,33.35,748,53Z" transform="translate(-7.8 -7.42)"/><path id="path2568" class="cls-1" d="M842.57,52.35l4.14-41.43H810.29q-2.62,20.69-4.69,41.7Z" transform="translate(-7.8 -7.42)"/><path id="path2572" class="cls-1" d="M737.35,53.12l-2.78-42.2H698.15l4.26,42.46Z" transform="translate(-7.8 -7.42)"/><path id="path2576" class="cls-1" d="M804.6,63.18q-3,32.64-4.74,66.05l-4.1-63.33c-0.06-.95-0.13-1.87-0.2-2.78l-48.5-.37q-3.49,36.16-4.74,62.47L738.4,69.1,738,62.69l-34.66-.26,11.57,115.2h46.59q8.19-66.42,10.43-87.32,4.89,48.92,11.3,87.32h46.86L841.47,63.45Z" transform="translate(-7.8 -7.42)"/><path id="path2580" class="cls-1" d="M891.7,52v-7.7h25V10.92H854.2V52.26Z" transform="translate(-7.8 -7.42)"/><path id="path2584" class="cls-1" d="M891.7,107.61h23.42V75.9H891.7V63.83l-37.5-.28V177.63h65V144.27H891.7V107.61Z" transform="translate(-7.8 -7.42)"/><path id="path2588" class="cls-1" d="M1008,99.17q-3.83-5.36-15-8.54,12.28-1.34,16.48-8t4.19-26.15q0-21.32-5.93-31.05T992.48,13.29q-9.4-2.37-35.95-2.37H930V51.7l37.18-.28V39.34L993.91,57.9,967.18,76.46V64.38L930,64.11V177.63h37.5V102.46q7.74,0,9.57,3.2t1.83,16.58v55.4h34.83v-44q0-20.19-.94-24.66a26.92,26.92,0,0,0-4.77-9.84" transform="translate(-7.8 -7.42)"/><path id="path2592" class="cls-1" d="M555.54,54.46v-15q7.3,0,9.62,2.58c1.54,1.71,2.31,5.43,2.31,11.11v1.24l31.33-.23c-0.1-8.7-.58-15.28-1.45-19.69a29.31,29.31,0,0,0-5.61-12.72q-4.14-5.25-12.38-8t-23.56-2.78H518V54.74Z" transform="translate(-7.8 -7.42)"/><path id="path2596" class="cls-1" d="M567.48,61.43v5.4q0,9.27-2,12.2c-1.33,2-3.72,2.94-7.17,2.94q-1.16,0-2.76-.11V61.34L518,61.07V177.63h37.51v-70H565.6q12.29,0,19.91-3.91A21.06,21.06,0,0,0,596,92.49c1.9-4.86,2.85-9.77,2.85-20.41V61.66Z" transform="translate(-7.8 -7.42)"/><path id="path2600" class="cls-1" d="M645.12,53.8v0q0-12.87,1.56-15.5a4.93,4.93,0,0,1,4.49-2.63,4.43,4.43,0,0,1,4.59,3.25q1.11,3.24,1.12,14.84l37.06-.27q-0.24-5.74-.63-9.47a43,43,0,0,0-6.68-19A35.32,35.32,0,0,0,671.8,11.8,47.92,47.92,0,0,0,651,7.42a46.82,46.82,0,0,0-21.38,4.63,35.83,35.83,0,0,0-14.57,13.28,43.65,43.65,0,0,0-6.41,19.1q-0.37,3.83-.62,9.64Z" transform="translate(-7.8 -7.42)"/><path id="path2604" class="cls-1" d="M656.88,62.09v68.28q0,14.73-1.07,18.64t-4.9,3.91a4.48,4.48,0,0,1-4.76-3.4q-1-3.39-1-17.91V62l-37.32-.28q-0.19,7.9-.18,18.29v28.52q0,25.75,1.06,36a43.12,43.12,0,0,0,6.69,19,35.29,35.29,0,0,0,14.84,13.13A48,48,0,0,0,651,181.13a46.82,46.82,0,0,0,21.38-4.63,35.94,35.94,0,0,0,14.57-13.28,43.77,43.77,0,0,0,6.41-19.1q1-10.46,1-35.58V80q0-10-.16-17.65Z" transform="translate(-7.8 -7.42)"/><path id="path2608" d="M558.68,198.37c-3.52-3.52-9.33-5.22-17.76-5.22s-13.84,1.62-17.33,5.13c-3.87,3.87-5.6,10.24-5.6,20.65v52c0,8.81,1.87,15,5.7,18.8,3.64,3.64,9.19,5.42,16.94,5.42a119.42,119.42,0,0,0,22.22-2.32V243.45H541.79v9.38h9.41v32.54l-1,.22a42.25,42.25,0,0,1-9.41,1,9.79,9.79,0,0,1-7-2.9c-2.63-2.64-4.09-6.87-4.09-11.93V219.93c0-15.09,6.05-18.25,11.13-18.25a9.51,9.51,0,0,1,6.89,2.74c2.3,2.3,3.53,5.85,3.53,10.24v4h11.66v-8.11c0-5.37-1.37-9.35-4.17-12.15" transform="translate(-7.8 -7.42)"/><path id="path2612" d="M576,194v100.3h36.17v-9.38H587.65V247.56h23.09v-9.38H587.65V203.38h24.51V194H576Z" transform="translate(-7.8 -7.42)"/><path id="path2616" d="M660.5,194v85.5h-1.14L642.54,194H623.74v100.3h10V206.52h1.14l16.82,87.79H671.3V194H660.5Z" transform="translate(-7.8 -7.42)"/><path id="path2620" d="M1003,194v85.5h-1.14L985,194H966.21v100.3h10V206.52h1.14l16.83,87.79h19.66V194H1003Z" transform="translate(-7.8 -7.42)"/><path id="path2624" d="M684.42,194v100.3h36.17v-9.38H696.08V247.56h23.09v-9.38H696.08V203.38h24.51V194H684.42Z" transform="translate(-7.8 -7.42)"/><path id="path2628" d="M816,258.7H796.65l9.44-52.18h0.57ZM799.88,194L777.78,294.3h12.5l4.7-26.22h22.52l4.7,26.22h12.52L814.3,194H799.88Z" transform="translate(-7.8 -7.42)"/><path id="path2632" d="M828.64,194v9.38h17.1v90.92H857.4V203.38h17.1V194H828.64Z" transform="translate(-7.8 -7.42)"/><path id="path2634" d="M882.77,294.3h11.66V194H882.77V294.3Z" transform="translate(-7.8 -7.42)"/><path id="path2638" d="M940.93,271.8c0,5.23-1.36,9.35-3.93,11.93a10.15,10.15,0,0,1-7.34,2.91,9.92,9.92,0,0,1-7.19-2.87c-2.58-2.58-3.95-6.71-3.95-12v-54c0-10.69,3.75-16.12,11.14-16.12a10,10,0,0,1,7.35,2.78c2.63,2.64,3.92,7,3.92,13.34v54Zm-11.26-78.65c-7.27,0-12.84,1.87-16.55,5.58-4.2,4.2-6.24,10.81-6.24,20.2v52c0,8.8,1.86,14.94,5.69,18.77,3.67,3.66,9.26,5.44,17.1,5.44,15.64,0,22.93-8.19,22.93-25.79v-52c0-8.78-1.87-14.91-5.69-18.74s-9.33-5.47-17.25-5.47" transform="translate(-7.8 -7.42)"/><path id="path2642" d="M770.46,260.11c0-9.6-3.2-14.44-11.81-15.33l-1.16-.12v-0.54l0.92-.29c10.8-3.28,12.62-9.35,12.62-23.07,0-12.23-.66-19.1-4.28-22.73-2.89-2.88-7.92-4.05-17.36-4.05h-20.8V294.3h11.66V249.55h6.15c5.07,0,7.89.75,9.74,2.6,2.22,2.22,2.67,5.84,2.67,11l-0.07,31.2h11.82Zm-25.21-19.94h-5V203.39h8.14c4.09,0,6.62.32,8.35,2,2.37,2.37,2.63,6.89,2.63,15.92,0,8.6-.49,13.46-3.15,16.12-2.26,2.26-5.73,2.7-11,2.7" transform="translate(-7.8 -7.42)"/></svg>